<svg viewBox="0 0 24 24" xmlns="http://www.w3.org/2000/svg" fill="white">
  <circle cx="12" cy="5.5" r="2.8" />
  <path d="M9.3 4.8 Q9.1 2.5 12 2.2 Q14.9 2.5 14.7 4.8" opacity="0.7" />
  <path d="M9.5 13.2 Q9 10.5 10 9.3 Q11 8.6 12 8.6 Q13 8.6 14 9.3 Q15 10.5 14.5 13.2Z" />
  <path d="M9.5 13.2 Q7.2 13.8 6.8 16.2 Q7.8 16.4 8.8 15Z" opacity="0.85" />
  <path d="M14.5 13.2 Q16.8 13.8 17.2 16.2 Q16.2 16.4 15.2 15Z" opacity="0.85" />
  <path d="M8.2 22 Q7.6 17.2 8.8 15 Q10.2 13 12 13 Q13.8 13 15.2 15 Q16.4 17.2 15.8 22Z" />
</svg>
